<svg width="32" height="32" viewBox="0 0 32 32" fill="none" xmlns="http://www.w3.org/2000/svg">
<rect width="32" height="32" rx="16" fill="#1771F1"/>
<path d="M11.7188 18.3203L13.1484 18.1953C13.2161 18.7682 13.3724 19.2396 13.6172 19.6094C13.8672 19.974 14.2526 20.2708 14.7734 20.5C15.2943 20.724 15.8802 20.8359 16.5312 20.8359C17.1094 20.8359 17.6198 20.75 18.0625 20.5781C18.5052 20.4062 18.8333 20.1719 19.0469 19.875C19.2656 19.5729 19.375 19.2448 19.375 18.8906C19.375 18.5312 19.2708 18.2188 19.0625 17.9531C18.8542 17.6823 18.5104 17.4557 18.0312 17.2734C17.724 17.1536 17.0443 16.9688 15.9922 16.7188C14.9401 16.4635 14.2031 16.224 13.7812 16C13.2344 15.7135 12.8255 15.3594 12.5547 14.9375C12.2891 14.5104 12.1562 14.0339 12.1562 13.5078C12.1562 12.9297 12.3203 12.3906 12.6484 11.8906C12.9766 11.3854 13.4557 11.0026 14.0859 10.7422C14.7161 10.4818 15.4167 10.3516 16.1875 10.3516C17.0365 10.3516 17.7839 10.4896 18.4297 10.7656C19.0807 11.0365 19.5807 11.4375 19.9297 11.9688C20.2786 12.5 20.4661 13.1016 20.4922 13.7734L19.0391 13.8828C18.9609 13.1589 18.6953 12.612 18.2422 12.2422C17.7943 11.8724 17.1302 11.6875 16.25 11.6875C15.3333 11.6875 14.6641 11.8568 14.2422 12.1953C13.8255 12.5286 13.6172 12.9323 13.6172 13.4062C13.6172 13.8177 13.7656 14.1562 14.0625 14.4219C14.3542 14.6875 15.1146 14.9609 16.3438 15.2422C17.5781 15.5182 18.4245 15.7604 18.8828 15.9688C19.5495 16.276 20.0417 16.6667 20.3594 17.1406C20.6771 17.6094 20.8359 18.151 20.8359 18.7656C20.8359 19.375 20.6615 19.9505 20.3125 20.4922C19.9635 21.0286 19.4609 21.4479 18.8047 21.75C18.1536 22.0469 17.4193 22.1953 16.6016 22.1953C15.5651 22.1953 14.6953 22.0443 13.9922 21.7422C13.2943 21.4401 12.7448 20.987 12.3438 20.3828C11.9479 19.7734 11.7396 19.0859 11.7188 18.3203Z" fill="white"/>
</svg>